<svg width="20" height="20" viewBox="0 0 20 20" fill="none" xmlns="http://www.w3.org/2000/svg">
<path fill-rule="evenodd" clip-rule="evenodd" d="M10 10.8334C11.9967 10.8334 13.8125 11.4117 15.1483 12.2259C15.815 12.6342 16.385 13.1134 16.7967 13.6342C17.2017 14.1475 17.5 14.7609 17.5 15.4167C17.5 16.1209 17.1575 16.6759 16.6642 17.0717C16.1975 17.4467 15.5817 17.695 14.9275 17.8684C13.6125 18.2159 11.8575 18.3334 10 18.3334C8.1425 18.3334 6.3875 18.2167 5.0725 17.8684C4.41833 17.695 3.8025 17.4467 3.33583 17.0717C2.84167 16.675 2.5 16.1209 2.5 15.4167C2.5 14.7609 2.79833 14.1475 3.20333 13.6342C3.615 13.1134 4.18417 12.6342 4.85167 12.2259C6.1875 11.4117 8.00417 10.8334 10 10.8334ZM10 12.5C8.31417 12.5 6.7975 12.9917 5.72 13.6492C5.18083 13.9775 4.77417 14.3342 4.51167 14.6675C4.24167 15.0092 4.16667 15.2675 4.16667 15.4167C4.16667 15.5184 4.1975 15.6259 4.37917 15.7717C4.58667 15.9384 4.9475 16.1109 5.49917 16.2567C6.5975 16.5484 8.17583 16.6667 10 16.6667C11.825 16.6667 13.4025 16.5475 14.5 16.2567C15.0525 16.1109 15.4133 15.9384 15.6208 15.7717C15.8025 15.6259 15.8333 15.5184 15.8333 15.4167C15.8333 15.2667 15.7583 15.0092 15.4892 14.6675C15.2258 14.3342 14.8192 13.9775 14.28 13.6492C13.2025 12.9909 11.6858 12.5 10 12.5ZM10 1.66669C11.1051 1.66669 12.1649 2.10567 12.9463 2.88708C13.7277 3.66848 14.1667 4.72828 14.1667 5.83335C14.1667 6.93842 13.7277 7.99823 12.9463 8.77963C12.1649 9.56103 11.1051 10 10 10C8.89493 10 7.83512 9.56103 7.05372 8.77963C6.27232 7.99823 5.83333 6.93842 5.83333 5.83335C5.83333 4.72828 6.27232 3.66848 7.05372 2.88708C7.83512 2.10567 8.89493 1.66669 10 1.66669ZM10 3.33335C9.6717 3.33335 9.34661 3.39802 9.04329 3.52365C8.73998 3.64929 8.46438 3.83344 8.23223 4.06559C8.00009 4.29773 7.81594 4.57333 7.6903 4.87665C7.56466 5.17996 7.5 5.50505 7.5 5.83335C7.5 6.16166 7.56466 6.48675 7.6903 6.79006C7.81594 7.09338 8.00009 7.36897 8.23223 7.60112C8.46438 7.83327 8.73998 8.01742 9.04329 8.14305C9.34661 8.26869 9.6717 8.33335 10 8.33335C10.663 8.33335 11.2989 8.06996 11.7678 7.60112C12.2366 7.13228 12.5 6.49639 12.5 5.83335C12.5 5.17031 12.2366 4.53443 11.7678 4.06559C11.2989 3.59675 10.663 3.33335 10 3.33335Z" fill="white"/>
</svg>
