<svg width="17" height="20" viewBox="0 0 17 20" fill="none" xmlns="http://www.w3.org/2000/svg">
<g opacity="1">
<path d="M13.9583 6.66667H16.1806V12.2222C16.1806 13.2986 15.978 14.3056 15.5729 15.2431C15.1678 16.1806 14.6123 17.0023 13.9062 17.7083C13.2002 18.4144 12.3785 18.9699 11.441 19.375C10.5035 19.7801 9.49074 19.9884 8.40278 20C7.32639 20 6.31944 19.7975 5.38194 19.3924C4.44444 18.9873 3.62269 18.4317 2.91667 17.7257C2.21065 17.0197 1.65509 16.1979 1.25 15.2604C0.844907 14.3229 0.636574 13.3102 0.625 12.2222V5.55556C0.625 4.79167 0.769676 4.07407 1.05903 3.40278C1.34838 2.73148 1.7419 2.14699 2.23958 1.64931C2.73727 1.15162 3.32755 0.752315 4.01042 0.451389C4.69329 0.150463 5.41667 0 6.18056 0C6.94444 0 7.66204 0.144676 8.33333 0.434028C9.00463 0.72338 9.58912 1.12269 10.0868 1.63194C10.5845 2.1412 10.9838 2.73148 11.2847 3.40278C11.5856 4.07407 11.7361 4.79167 11.7361 5.55556V11.1111C11.7361 11.5741 11.6493 12.0081 11.4757 12.4132C11.3021 12.8183 11.0648 13.1713 10.7639 13.4722C10.463 13.7731 10.11 14.0104 9.70486 14.184C9.29977 14.3576 8.86574 14.4444 8.40278 14.4444C7.93982 14.4444 7.50579 14.3576 7.10069 14.184C6.6956 14.0104 6.34259 13.7731 6.04167 13.4722C5.74074 13.1713 5.50347 12.8183 5.32986 12.4132C5.15625 12.0081 5.06944 11.5741 5.06944 11.1111V6.66667H7.29167V11.1111C7.29167 11.412 7.40162 11.6725 7.62153 11.8924C7.84144 12.1123 8.10185 12.2222 8.40278 12.2222C8.7037 12.2222 8.96412 12.1123 9.18403 11.8924C9.40394 11.6725 9.51389 11.412 9.51389 11.1111V5.55556C9.51389 5.09259 9.42708 4.65857 9.25347 4.25347C9.07986 3.84838 8.84259 3.49537 8.54167 3.19444C8.24074 2.89352 7.88773 2.65625 7.48264 2.48264C7.07755 2.30903 6.64352 2.22222 6.18056 2.22222C5.71759 2.22222 5.28357 2.30903 4.87847 2.48264C4.47338 2.65625 4.12037 2.89352 3.81944 3.19444C3.51852 3.49537 3.28125 3.84838 3.10764 4.25347C2.93403 4.65857 2.84722 5.09259 2.84722 5.55556V12.2222C2.84722 12.9861 2.9919 13.7037 3.28125 14.375C3.5706 15.0463 3.96412 15.6366 4.46181 16.1458C4.95949 16.6551 5.54977 17.0544 6.23264 17.3438C6.91551 17.6331 7.63889 17.7778 8.40278 17.7778C9.16667 17.7778 9.88426 17.6331 10.5556 17.3438C11.2269 17.0544 11.8113 16.6609 12.309 16.1632C12.8067 15.6655 13.206 15.0752 13.5069 14.3924C13.8079 13.7095 13.9583 12.9861 13.9583 12.2222V6.66667Z" fill="black"/>
</g>
</svg>
