<svg width="28" height="28" viewBox="0 0 28 28" fill="none" xmlns="http://www.w3.org/2000/svg">
<g opacity="1">
<path fill-rule="evenodd" clip-rule="evenodd" d="M8.40003 1.8667C8.64757 1.8667 8.88496 1.96503 9.06 2.14007C9.23503 2.3151 9.33337 2.5525 9.33337 2.80003V3.73337H18.6667V2.80003C18.6667 2.5525 18.765 2.3151 18.9401 2.14007C19.1151 1.96503 19.3525 1.8667 19.6 1.8667C19.8476 1.8667 20.085 1.96503 20.26 2.14007C20.435 2.3151 20.5334 2.5525 20.5334 2.80003V3.73337H23.3334C24.076 3.73337 24.7882 4.02837 25.3133 4.55347C25.8384 5.07857 26.1334 5.79076 26.1334 6.53337V23.3334C26.1334 24.076 25.8384 24.7882 25.3133 25.3133C24.7882 25.8384 24.076 26.1334 23.3334 26.1334H4.6667C3.92409 26.1334 3.2119 25.8384 2.6868 25.3133C2.1617 24.7882 1.8667 24.076 1.8667 23.3334V6.53337C1.8667 5.79076 2.1617 5.07857 2.6868 4.55347C3.2119 4.02837 3.92409 3.73337 4.6667 3.73337H7.4667V2.80003C7.4667 2.5525 7.56503 2.3151 7.74007 2.14007C7.9151 1.96503 8.1525 1.8667 8.40003 1.8667ZM18.6667 5.60003V6.53337C18.6667 6.7809 18.765 7.0183 18.9401 7.19333C19.1151 7.36837 19.3525 7.4667 19.6 7.4667C19.8476 7.4667 20.085 7.36837 20.26 7.19333C20.435 7.0183 20.5334 6.7809 20.5334 6.53337V5.60003H23.3334C23.5809 5.60003 23.8183 5.69837 23.9933 5.8734C24.1684 6.04843 24.2667 6.28583 24.2667 6.53337V9.33337H3.73337V6.53337C3.73337 6.28583 3.8317 6.04843 4.00673 5.8734C4.18177 5.69837 4.41916 5.60003 4.6667 5.60003H7.4667V6.53337C7.4667 6.7809 7.56503 7.0183 7.74007 7.19333C7.9151 7.36837 8.1525 7.4667 8.40003 7.4667C8.64757 7.4667 8.88496 7.36837 9.06 7.19333C9.23503 7.0183 9.33337 6.7809 9.33337 6.53337V5.60003H18.6667ZM3.73337 11.2V23.3334C3.73337 23.5809 3.8317 23.8183 4.00673 23.9933C4.18177 24.1684 4.41916 24.2667 4.6667 24.2667H23.3334C23.5809 24.2667 23.8183 24.1684 23.9933 23.9933C24.1684 23.8183 24.2667 23.5809 24.2667 23.3334V11.2H3.73337ZM13.0667 14C13.0667 13.7525 13.165 13.5151 13.3401 13.3401C13.5151 13.165 13.7525 13.0667 14 13.0667C14.2476 13.0667 14.485 13.165 14.66 13.3401C14.835 13.5151 14.9334 13.7525 14.9334 14C14.9334 14.2476 14.835 14.485 14.66 14.66C14.485 14.835 14.2476 14.9334 14 14.9334C13.7525 14.9334 13.5151 14.835 13.3401 14.66C13.165 14.485 13.0667 14.2476 13.0667 14ZM17.7334 13.0667C17.4858 13.0667 17.2484 13.165 17.0734 13.3401C16.8984 13.5151 16.8 13.7525 16.8 14C16.8 14.2476 16.8984 14.485 17.0734 14.66C17.2484 14.835 17.4858 14.9334 17.7334 14.9334C17.9809 14.9334 18.2183 14.835 18.3933 14.66C18.5684 14.485 18.6667 14.2476 18.6667 14C18.6667 13.7525 18.5684 13.5151 18.3933 13.3401C18.2183 13.165 17.9809 13.0667 17.7334 13.0667ZM20.5334 14C20.5334 13.7525 20.6317 13.5151 20.8067 13.3401C20.9818 13.165 21.2192 13.0667 21.4667 13.0667C21.7142 13.0667 21.9516 13.165 22.1267 13.3401C22.3017 13.5151 22.4 13.7525 22.4 14C22.4 14.2476 22.3017 14.485 22.1267 14.66C21.9516 14.835 21.7142 14.9334 21.4667 14.9334C21.2192 14.9334 20.9818 14.835 20.8067 14.66C20.6317 14.485 20.5334 14.2476 20.5334 14ZM21.4667 16.8C21.2192 16.8 20.9818 16.8984 20.8067 17.0734C20.6317 17.2484 20.5334 17.4858 20.5334 17.7334C20.5334 17.9809 20.6317 18.2183 20.8067 18.3933C20.9818 18.5684 21.2192 18.6667 21.4667 18.6667C21.7142 18.6667 21.9516 18.5684 22.1267 18.3933C22.3017 18.2183 22.4 17.9809 22.4 17.7334C22.4 17.4858 22.3017 17.2484 22.1267 17.0734C21.9516 16.8984 21.7142 16.8 21.4667 16.8ZM16.8 17.7334C16.8 17.4858 16.8984 17.2484 17.0734 17.0734C17.2484 16.8984 17.4858 16.8 17.7334 16.8C17.9809 16.8 18.2183 16.8984 18.3933 17.0734C18.5684 17.2484 18.6667 17.4858 18.6667 17.7334C18.6667 17.9809 18.5684 18.2183 18.3933 18.3933C18.2183 18.5684 17.9809 18.6667 17.7334 18.6667C17.4858 18.6667 17.2484 18.5684 17.0734 18.3933C16.8984 18.2183 16.8 17.9809 16.8 17.7334ZM14 16.8C13.7525 16.8 13.5151 16.8984 13.3401 17.0734C13.165 17.2484 13.0667 17.4858 13.0667 17.7334C13.0667 17.9809 13.165 18.2183 13.3401 18.3933C13.5151 18.5684 13.7525 18.6667 14 18.6667C14.2476 18.6667 14.485 18.5684 14.66 18.3933C14.835 18.2183 14.9334 17.9809 14.9334 17.7334C14.9334 17.4858 14.835 17.2484 14.66 17.0734C14.485 16.8984 14.2476 16.8 14 16.8ZM9.33337 17.7334C9.33337 17.4858 9.4317 17.2484 9.60673 17.0734C9.78177 16.8984 10.0192 16.8 10.2667 16.8C10.5142 16.8 10.7516 16.8984 10.9267 17.0734C11.1017 17.2484 11.2 17.4858 11.2 17.7334C11.2 17.9809 11.1017 18.2183 10.9267 18.3933C10.7516 18.5684 10.5142 18.6667 10.2667 18.6667C10.0192 18.6667 9.78177 18.5684 9.60673 18.3933C9.4317 18.2183 9.33337 17.9809 9.33337 17.7334ZM6.53337 16.8C6.28583 16.8 6.04843 16.8984 5.8734 17.0734C5.69837 17.2484 5.60003 17.4858 5.60003 17.7334C5.60003 17.9809 5.69837 18.2183 5.8734 18.3933C6.04843 18.5684 6.28583 18.6667 6.53337 18.6667C6.7809 18.6667 7.0183 18.5684 7.19333 18.3933C7.36837 18.2183 7.4667 17.9809 7.4667 17.7334C7.4667 17.4858 7.36837 17.2484 7.19333 17.0734C7.0183 16.8984 6.7809 16.8 6.53337 16.8ZM5.60003 21.4667C5.60003 21.2192 5.69837 20.9818 5.8734 20.8067C6.04843 20.6317 6.28583 20.5334 6.53337 20.5334C6.7809 20.5334 7.0183 20.6317 7.19333 20.8067C7.36837 20.9818 7.4667 21.2192 7.4667 21.4667C7.4667 21.7142 7.36837 21.9516 7.19333 22.1267C7.0183 22.3017 6.7809 22.4 6.53337 22.4C6.28583 22.4 6.04843 22.3017 5.8734 22.1267C5.69837 21.9516 5.60003 21.7142 5.60003 21.4667ZM10.2667 20.5334C10.0192 20.5334 9.78177 20.6317 9.60673 20.8067C9.4317 20.9818 9.33337 21.2192 9.33337 21.4667C9.33337 21.7142 9.4317 21.9516 9.60673 22.1267C9.78177 22.3017 10.0192 22.4 10.2667 22.4C10.5142 22.4 10.7516 22.3017 10.9267 22.1267C11.1017 21.9516 11.2 21.7142 11.2 21.4667C11.2 21.2192 11.1017 20.9818 10.9267 20.8067C10.7516 20.6317 10.5142 20.5334 10.2667 20.5334ZM13.0667 21.4667C13.0667 21.2192 13.165 20.9818 13.3401 20.8067C13.5151 20.6317 13.7525 20.5334 14 20.5334C14.2476 20.5334 14.485 20.6317 14.66 20.8067C14.835 20.9818 14.9334 21.2192 14.9334 21.4667C14.9334 21.7142 14.835 21.9516 14.66 22.1267C14.485 22.3017 14.2476 22.4 14 22.4C13.7525 22.4 13.5151 22.3017 13.3401 22.1267C13.165 21.9516 13.0667 21.7142 13.0667 21.4667ZM17.7334 20.5334C17.4858 20.5334 17.2484 20.6317 17.0734 20.8067C16.8984 20.9818 16.8 21.2192 16.8 21.4667C16.8 21.7142 16.8984 21.9516 17.0734 22.1267C17.2484 22.3017 17.4858 22.4 17.7334 22.4C17.9809 22.4 18.2183 22.3017 18.3933 22.1267C18.5684 21.9516 18.6667 21.7142 18.6667 21.4667C18.6667 21.2192 18.5684 20.9818 18.3933 20.8067C18.2183 20.6317 17.9809 20.5334 17.7334 20.5334Z" fill="#1252EA"/>
</g>
</svg>
