<svg width="30" height="30" viewBox="0 0 30 30" fill="none" xmlns="http://www.w3.org/2000/svg">
<path d="M25.3125 20.7572V16.875C25.3125 16.3777 25.115 15.9008 24.7633 15.5492C24.4117 15.1975 23.9348 15 23.4375 15H15.9375V11.25H17.8125C18.3096 11.2495 18.7863 11.0518 19.1378 10.7003C19.4893 10.3488 19.687 9.87213 19.6875 9.375V3.75C19.687 3.25287 19.4893 2.77625 19.1378 2.42472C18.7863 2.0732 18.3096 1.8755 17.8125 1.875H12.1875C11.6904 1.8755 11.2138 2.0732 10.8622 2.42472C10.5107 2.77625 10.313 3.25287 10.3125 3.75V9.375C10.313 9.87213 10.5107 10.3488 10.8622 10.7003C11.2138 11.0518 11.6904 11.2495 12.1875 11.25H14.0625V15H6.56251C6.06523 15 5.58831 15.1975 5.23668 15.5492C4.88505 15.9008 4.68751 16.3777 4.68751 16.875V20.7581C3.80377 20.9863 3.03358 21.529 2.52132 22.2844C2.00906 23.0398 1.78989 23.9561 1.9049 24.8616C2.01991 25.767 2.46119 26.5994 3.14604 27.2028C3.83089 27.8062 4.71228 28.139 5.62501 28.139C6.53773 28.139 7.41913 27.8062 8.10398 27.2028C8.78883 26.5994 9.23011 25.767 9.34512 24.8616C9.46013 23.9561 9.24096 23.0398 8.7287 22.2844C8.21644 21.529 7.44625 20.9863 6.56251 20.7581V16.875H14.0625V20.7581C13.1788 20.9863 12.4086 21.529 11.8963 22.2844C11.3841 23.0398 11.1649 23.9561 11.2799 24.8616C11.3949 25.767 11.8362 26.5994 12.521 27.2028C13.2059 27.8062 14.0873 28.139 15 28.139C15.9127 28.139 16.7941 27.8062 17.479 27.2028C18.1638 26.5994 18.6051 25.767 18.7201 24.8616C18.8351 23.9561 18.616 23.0398 18.1037 22.2844C17.5914 21.529 16.8213 20.9863 15.9375 20.7581V16.875H23.4375V20.7572C22.5538 20.9854 21.7836 21.528 21.2713 22.2834C20.7591 23.0389 20.5399 23.9552 20.6549 24.8606C20.7699 25.7661 21.2112 26.5985 21.896 27.2019C22.5809 27.8052 23.4623 28.1381 24.375 28.1381C25.2877 28.1381 26.1691 27.8052 26.854 27.2019C27.5388 26.5985 27.9801 25.7661 28.0951 24.8606C28.2101 23.9552 27.991 23.0389 27.4787 22.2834C26.9664 21.528 26.1963 20.9854 25.3125 20.7572ZM12.1875 3.75H17.8125L17.8134 9.375H12.1875V3.75ZM7.50001 24.375C7.50001 24.7458 7.39004 25.1084 7.18401 25.4167C6.97799 25.725 6.68515 25.9654 6.34254 26.1073C5.99993 26.2492 5.62293 26.2863 5.25921 26.214C4.8955 26.1416 4.56141 25.963 4.29918 25.7008C4.03696 25.4386 3.85838 25.1045 3.78604 24.7408C3.71369 24.3771 3.75082 24.0001 3.89273 23.6575C4.03465 23.3149 4.27497 23.022 4.58331 22.816C4.89166 22.61 5.25417 22.5 5.62501 22.5C6.12214 22.5005 6.59876 22.6982 6.95029 23.0497C7.30181 23.4012 7.49951 23.8779 7.50001 24.375ZM16.875 24.375C16.875 24.7458 16.765 25.1084 16.559 25.4167C16.353 25.725 16.0602 25.9654 15.7175 26.1073C15.3749 26.2492 14.9979 26.2863 14.6342 26.214C14.2705 26.1416 13.9364 25.963 13.6742 25.7008C13.412 25.4386 13.2334 25.1045 13.161 24.7408C13.0887 24.3771 13.1258 24.0001 13.2677 23.6575C13.4096 23.3149 13.65 23.022 13.9583 22.816C14.2667 22.61 14.6292 22.5 15 22.5C15.4971 22.5007 15.9735 22.6985 16.325 23.05C16.6765 23.4015 16.8743 23.8779 16.875 24.375ZM24.375 26.25C24.0042 26.25 23.6417 26.14 23.3333 25.934C23.025 25.728 22.7846 25.4351 22.6427 25.0925C22.5008 24.7499 22.4637 24.3729 22.536 24.0092C22.6084 23.6455 22.787 23.3114 23.0492 23.0492C23.3114 22.787 23.6455 22.6084 24.0092 22.536C24.3729 22.4637 24.7499 22.5008 25.0925 22.6427C25.4352 22.7846 25.728 23.025 25.934 23.3333C26.14 23.6416 26.25 24.0042 26.25 24.375C26.2495 24.8721 26.0518 25.3488 25.7003 25.7003C25.3488 26.0518 24.8721 26.2495 24.375 26.25Z" fill="white"/>
</svg>
