<svg width="24" height="24" viewBox="0 0 24 24" fill="none" xmlns="http://www.w3.org/2000/svg">
<g clip-path="url(#clip0_288_328)">
<path d="M10.1606 23.9999C7.41888 23.9999 4.66944 23.9999 1.92768 23.9999C0.79872 23.9999 0.00768 23.2088 0.00768 22.0876C0 16.5887 0 11.0898 0 5.58324C0 4.47732 0.79872 3.68628 1.91232 3.68628C4.88448 3.68628 7.86432 3.68628 10.8365 3.68628C11.4202 3.68628 11.8349 4.0626 11.8502 4.6002C11.8656 5.1378 11.4662 5.5602 10.9286 5.56788C10.2374 5.57556 9.54624 5.56788 8.85504 5.56788C6.65856 5.56788 4.46208 5.57556 2.25792 5.5602C1.97376 5.5602 1.8816 5.62164 1.8816 5.92884C1.88928 11.205 1.88928 16.4888 1.8816 21.765C1.8816 22.0415 1.95072 22.126 2.23488 22.126C7.5264 22.1183 12.8102 22.1183 18.1018 22.126C18.3706 22.126 18.4397 22.0492 18.4397 21.7804C18.432 18.908 18.432 16.0434 18.432 13.1711C18.432 12.5797 18.7776 12.1804 19.3075 12.1573C19.8758 12.1266 20.3136 12.5413 20.3136 13.1327C20.3213 14.638 20.3136 16.1432 20.3136 17.6562C20.3136 19.1461 20.3136 20.6284 20.3136 22.1183C20.3136 23.2088 19.5072 24.0076 18.4166 24.0076C15.6672 23.9999 12.9101 23.9999 10.1606 23.9999Z" fill="#1252EA"/>
<path d="M20.7667 0C22.0723 0.00768 23.2551 0.77568 23.7389 1.95072C24.2611 3.21024 23.9923 4.608 23.0323 5.568C21.7191 6.88896 20.3981 8.20224 19.0771 9.51552C17.4183 11.1744 15.7671 12.8256 14.1159 14.4845C13.9392 14.6611 13.7395 14.7763 13.4938 14.8224C12.1882 15.0989 10.8826 15.3754 9.58467 15.6518C8.68611 15.8438 8.14083 15.2909 8.33283 14.3923C8.61699 13.0867 8.88579 11.7888 9.16227 10.4832C9.20835 10.2528 9.31587 10.0608 9.48483 9.88416C12.4723 6.91968 15.4522 3.93984 18.432 0.96C19.0771 0.32256 19.8605 0.00768 20.7667 0ZM10.7059 13.4707C10.7136 13.4707 10.7443 13.463 10.7751 13.463C11.4432 13.3171 12.1037 13.1712 12.7719 13.033C12.8947 13.0099 12.9792 12.9408 13.0637 12.8563C15.1219 10.7981 17.1879 8.73216 19.2538 6.67392C19.3843 6.54336 19.392 6.45888 19.2538 6.32832C18.7239 5.81376 18.2016 5.29152 17.6871 4.7616C17.5411 4.608 17.4567 4.63104 17.3184 4.76928C15.2679 6.82752 13.2096 8.87808 11.1591 10.9363C11.0899 11.0054 11.0131 11.0669 10.9901 11.1667C10.8365 11.8656 10.6829 12.5722 10.537 13.271C10.5063 13.3939 10.537 13.4861 10.7059 13.4707ZM22.08 3.34848C22.08 2.69568 21.8496 2.2656 21.3274 2.04288C20.7975 1.82016 20.2906 1.87392 19.8451 2.25792C19.5533 2.51904 19.2845 2.81088 19.0003 3.07968C18.8698 3.20256 18.8851 3.28704 19.008 3.40992C19.5379 3.93216 20.0679 4.46208 20.5978 4.99968C20.7283 5.13024 20.8128 5.11488 20.928 4.992C21.1815 4.73088 21.4349 4.46976 21.696 4.21632C21.9571 3.94752 22.0954 3.63264 22.08 3.34848Z" fill="#1252EA"/>
</g>
<defs>
<clipPath id="clip0_288_328">
<rect width="24" height="24" fill="white"/>
</clipPath>
</defs>
</svg>
