<svg width="28" height="28" viewBox="0 0 28 28" fill="none" xmlns="http://www.w3.org/2000/svg">
<path d="M12.7978 2.20845C13.1227 1.90126 13.5529 1.7301 14 1.7301C14.4471 1.7301 14.8773 1.90126 15.2023 2.20845L23.6793 10.2217C24.2043 10.717 24.5 11.4082 24.5 12.1292V21.8767C24.5 22.5729 24.2234 23.2406 23.7312 23.7329C23.2389 24.2251 22.5712 24.5017 21.875 24.5017H18.375C18.0301 24.5017 17.6886 24.4337 17.3701 24.3017C17.0515 24.1697 16.762 23.9762 16.5182 23.7322C16.2744 23.4883 16.0811 23.1987 15.9493 22.88C15.8175 22.5614 15.7498 22.2198 15.75 21.875V17.5C15.75 17.2679 15.6578 17.0453 15.4937 16.8812C15.3296 16.7171 15.1071 16.625 14.875 16.625H13.125C12.8929 16.625 12.6704 16.7171 12.5063 16.8812C12.3422 17.0453 12.25 17.2679 12.25 17.5V21.875C12.25 22.5711 11.9734 23.2388 11.4812 23.7311C10.9889 24.2234 10.3212 24.5 9.625 24.5H6.125C5.42881 24.5 4.76113 24.2234 4.26884 23.7311C3.77656 23.2388 3.5 22.5711 3.5 21.875V12.1275C3.5 11.4065 3.7975 10.7152 4.3225 10.22L12.7978 2.20495V2.20845ZM14 3.47895L5.523 11.494C5.43694 11.5755 5.36837 11.6738 5.32144 11.7827C5.27451 11.8916 5.2502 12.0089 5.25 12.1275V21.875C5.25 22.107 5.34219 22.3296 5.50628 22.4937C5.67038 22.6578 5.89294 22.75 6.125 22.75H9.625C9.85706 22.75 10.0796 22.6578 10.2437 22.4937C10.4078 22.3296 10.5 22.107 10.5 21.875V17.5C10.5 16.8038 10.7766 16.1361 11.2688 15.6438C11.7611 15.1515 12.4288 14.875 13.125 14.875H14.875C15.5712 14.875 16.2389 15.1515 16.7312 15.6438C17.2234 16.1361 17.5 16.8038 17.5 17.5V21.875C17.5 22.107 17.5922 22.3296 17.7563 22.4937C17.9204 22.6578 18.1429 22.75 18.375 22.75H21.875C22.1071 22.75 22.3296 22.6578 22.4937 22.4937C22.6578 22.3296 22.75 22.107 22.75 21.875V12.1275C22.75 12.0086 22.7258 11.8909 22.6789 11.7817C22.632 11.6725 22.5633 11.574 22.477 11.4922L14 3.47895Z" fill="#1252EA"/>
</svg>
