<svg width="29" height="29" viewBox="0 0 29 29" fill="none" xmlns="http://www.w3.org/2000/svg">
<path d="M24.582 20.7305H22.5911C22.4552 20.7305 22.3278 20.79 22.2428 20.8948C22.0445 21.1355 21.8321 21.3677 21.6084 21.5886C20.6934 22.5046 19.6095 23.2345 18.4167 23.7381C17.181 24.2601 15.8528 24.5278 14.5113 24.5254C13.1548 24.5254 11.8407 24.2592 10.606 23.7381C9.41321 23.2345 8.32933 22.5046 7.41428 21.5886C6.49759 20.6757 5.76665 19.5938 5.26193 18.4026C4.73801 17.1678 4.47463 15.8566 4.47463 14.5C4.47463 13.1435 4.74084 11.8323 5.26193 10.5975C5.76604 9.40522 6.49103 8.33188 7.41428 7.41147C8.33752 6.49106 9.41086 5.76606 10.606 5.26196C11.8407 4.74086 13.1548 4.47465 14.5113 4.47465C15.8679 4.47465 17.182 4.73803 18.4167 5.26196C19.6118 5.76606 20.6852 6.49106 21.6084 7.41147C21.8321 7.6352 22.0417 7.86743 22.2428 8.10532C22.3278 8.2101 22.458 8.26957 22.5911 8.26957H24.582C24.7605 8.26957 24.8709 8.07133 24.7718 7.92123C22.5996 4.54545 18.799 2.31098 14.4802 2.32231C7.69465 2.3393 2.25432 7.8476 2.32229 14.6247C2.39025 21.2941 7.82209 26.6778 14.5113 26.6778C18.8189 26.6778 22.6025 24.4461 24.7718 21.0788C24.8681 20.9288 24.7605 20.7305 24.582 20.7305ZM27.0997 14.3216L23.0811 11.1497C22.931 11.0308 22.7129 11.1384 22.7129 11.3282V13.4805H13.8203C13.6957 13.4805 13.5938 13.5825 13.5938 13.7071V15.293C13.5938 15.4176 13.6957 15.5196 13.8203 15.5196H22.7129V17.6719C22.7129 17.8617 22.9338 17.9693 23.0811 17.8503L27.0997 14.6785C27.1268 14.6573 27.1487 14.6302 27.1638 14.5993C27.1788 14.5684 27.1867 14.5344 27.1867 14.5C27.1867 14.4657 27.1788 14.4317 27.1638 14.4008C27.1487 14.3699 27.1268 14.3428 27.0997 14.3216Z" fill="white"/>
</svg>
