<svg width="120" height="120" viewBox="0 0 120 120" fill="none" xmlns="http://www.w3.org/2000/svg">
<path d="M119.137 49.7783L80.2567 26.2077C79.2065 26.9778 77.8296 27.2812 76.4527 26.9078C74.119 26.2544 72.7421 23.8273 73.3956 21.4702C74.049 19.1365 76.4761 17.7596 78.8331 18.4131C81.0268 19.0198 82.3571 21.1902 82.007 23.3839L118.203 45.3442C113.069 24.9475 97.5263 8.70478 77.5496 2.61377L40.7701 25.0875C40.9102 25.741 40.8868 26.4411 40.7001 27.1412C40.0467 29.4749 37.6196 30.8518 35.2625 30.1984C32.9288 29.5449 31.5519 27.1179 32.2054 24.7608C32.8588 22.4271 35.2859 21.0502 37.6429 21.7036C38.1097 21.8436 38.5531 22.0537 38.9498 22.3104L73.0688 1.42357C68.8681 0.490082 64.4808 0 60 0C44.5274 0 30.4317 5.85764 19.79 15.4726L20.4434 58.4364C22.6371 59.1832 23.8973 61.5169 23.2672 63.7806C22.6138 66.1143 20.1867 67.4912 17.8296 66.8378C15.4959 66.1844 14.119 63.7573 14.7725 61.4002C15.1225 60.1167 16.0093 59.1365 17.1295 58.5998L16.5228 18.6464C6.27771 29.4049 0 43.9673 0 60C0 64.3641 0.466745 68.6114 1.35356 72.6954L39.79 94.2124C40.8635 93.3489 42.3104 92.9988 43.734 93.3956C46.0677 94.049 47.4446 96.4761 46.7911 98.8331C46.1377 101.167 43.7106 102.544 41.3536 101.89C39.2299 101.307 37.8997 99.2532 38.1564 97.1062L2.49708 77.1295C7.93466 95.3792 21.8203 109.988 39.6033 116.429L78.9498 94.6091C78.8798 94.049 78.9265 93.4656 79.0665 92.8821C79.7199 90.5484 82.147 89.1715 84.5041 89.825C86.8378 90.4784 88.2147 92.9055 87.5613 95.2625C86.9078 97.5963 84.4807 98.9732 82.1237 98.3197C81.5403 98.1564 81.0035 97.8763 80.5601 97.5263L43.9207 117.83C49.0315 119.253 54.3991 120 59.9767 120C75.3092 120 89.3116 114.236 99.93 104.761L99.7666 63.0805C97.713 62.2637 96.5694 60 97.1762 57.8063C97.8296 55.4726 100.257 54.0957 102.614 54.7491C104.947 55.4026 106.324 57.8296 105.671 60.1867C105.298 61.5403 104.317 62.5904 103.104 63.0805L103.267 101.587C113.629 90.8051 120 76.1494 120 60C120 56.5228 119.697 53.0922 119.137 49.7783ZM60 85.9977C58.4364 85.9977 57.1762 84.7375 57.1762 83.1739C57.1762 81.6103 58.4364 80.3501 60 80.3501C61.5636 80.3501 62.8238 81.6103 62.8238 83.1739C62.8238 84.7375 61.5636 85.9977 60 85.9977ZM66.0677 82.9638C65.951 79.6966 63.2906 77.0828 60 77.0828C56.7095 77.0828 54.049 79.6966 53.9323 82.9638L50.4084 80.9335C51.4119 76.5694 55.3326 73.3256 60 73.3256C64.6674 73.3256 68.5881 76.5694 69.5916 80.9335L66.0677 82.9638ZM72.9755 78.9732C71.2019 73.4889 66.0677 69.5216 60 69.5216C53.9323 69.5216 48.7748 73.4889 47.0245 78.9732L43.6873 77.0362C46.161 70.4317 52.5321 65.7176 60 65.7176C67.4679 65.7176 73.839 70.4084 76.3127 77.0362L72.9755 78.9732ZM82.7071 60.2334V72.7188V73.3489L79.6266 75.1225C76.4527 67.3979 68.8681 61.937 59.9767 61.937C51.1085 61.937 43.5006 67.3746 40.3267 75.1225L37.2462 73.3489V72.7188V60.2334V47.1179L48.6114 40.5601L59.9767 34.0023L71.3419 40.5601L82.7071 47.1179V60.2334Z" fill="white"/>
<path d="M40.9802 49.2415V66.9311C45.5543 61.5636 52.3921 58.1564 60.0001 58.1564C67.608 58.1564 74.4458 61.5636 79.0199 66.9311V49.2415L60.0001 38.273L40.9802 49.2415ZM59.5567 52.6954H56.2194V49.3582H59.5567V52.6954ZM59.5567 48.5414H56.2194V45.2042H59.5567V48.5414ZM60.4201 45.2042H63.7574V48.5414H60.4201V45.2042ZM60.4201 49.3582H63.7574V52.6954H60.4201V49.3582Z" fill="white"/>
<path d="M36.4527 28.3081C37.7931 28.3081 38.8798 27.2214 38.8798 25.881C38.8798 24.5406 37.7931 23.4539 36.4527 23.4539C35.1123 23.4539 34.0256 24.5406 34.0256 25.881C34.0256 27.2214 35.1123 28.3081 36.4527 28.3081Z" fill="white"/>
<path d="M19.0198 64.9942C20.3603 64.9942 21.4469 63.9075 21.4469 62.5671C21.4469 61.2267 20.3603 60.14 19.0198 60.14C17.6794 60.14 16.5928 61.2267 16.5928 62.5671C16.5928 63.9075 17.6794 64.9942 19.0198 64.9942Z" fill="white"/>
<path d="M42.5904 100.187C43.9308 100.187 45.0175 99.1001 45.0175 97.7596C45.0175 96.4192 43.9308 95.3326 42.5904 95.3326C41.25 95.3326 40.1633 96.4192 40.1633 97.7596C40.1633 99.1001 41.25 100.187 42.5904 100.187Z" fill="white"/>
<path d="M83.4539 96.4761C84.7944 96.4761 85.881 95.3895 85.881 94.049C85.881 92.7086 84.7944 91.6219 83.4539 91.6219C82.1135 91.6219 81.0269 92.7086 81.0269 94.049C81.0269 95.3895 82.1135 96.4761 83.4539 96.4761Z" fill="white"/>
<path d="M101.517 61.4236C102.857 61.4236 103.944 60.3369 103.944 58.9965C103.944 57.6561 102.857 56.5694 101.517 56.5694C100.176 56.5694 99.0898 57.6561 99.0898 58.9965C99.0898 60.3369 100.176 61.4236 101.517 61.4236Z" fill="white"/>
<path d="M77.5963 25.0408C78.9367 25.0408 80.0233 23.9542 80.0233 22.6138C80.0233 21.2733 78.9367 20.1867 77.5963 20.1867C76.2558 20.1867 75.1692 21.2733 75.1692 22.6138C75.1692 23.9542 76.2558 25.0408 77.5963 25.0408Z" fill="white"/>
</svg>
