<svg width="239" height="60" viewBox="0 0 239 60" fill="none" xmlns="http://www.w3.org/2000/svg">
<path d="M59.2069 24.8821L39.8927 13.0872C39.3625 13.4769 38.6894 13.6205 38.0164 13.4359C36.8539 13.1077 36.1604 11.8974 36.4868 10.7282C36.8131 9.55898 38.0164 8.86154 39.1789 9.18974C40.2598 9.49744 40.9329 10.5641 40.7493 11.6718L58.7378 22.6462C56.1884 12.4513 48.4587 4.34872 38.5263 1.29231L20.2523 12.5333C20.3135 12.8615 20.3135 13.2103 20.2115 13.559C19.8852 14.7282 18.6819 15.4256 17.5194 15.0974C16.3568 14.7692 15.6634 13.559 15.9897 12.3897C16.316 11.2205 17.5194 10.5231 18.6819 10.8513C18.9266 10.9128 19.1306 11.0154 19.3345 11.159L36.3236 0.717949C34.2229 0.246154 32.061 0 29.8176 0C22.1286 0 15.1331 2.93333 9.83042 7.73333L10.1567 29.2103C11.2377 29.5795 11.8699 30.7487 11.564 31.8769C11.2377 33.0462 10.0344 33.7436 8.87185 33.4154C7.70933 33.0872 7.0159 31.8769 7.34222 30.7077C7.52578 30.0718 7.95407 29.5795 8.50474 29.3128L8.19882 9.35384C3.12045 14.7282 0 22.0103 0 30.0103C0 32.1846 0.224345 34.3179 0.673036 36.3487L19.7628 47.0974C20.2931 46.6667 21.0069 46.4821 21.7207 46.6872C22.8833 47.0154 23.5767 48.2256 23.2504 49.3949C22.924 50.5641 21.7207 51.2615 20.5582 50.9333C19.4977 50.6462 18.845 49.6205 18.9674 48.5538L1.2441 38.5641C3.93625 47.6923 10.8502 54.9949 19.6812 58.1949L39.2401 47.3026C39.1993 47.0154 39.2197 46.7282 39.3013 46.441C39.6276 45.2718 40.8309 44.5744 41.9934 44.9026C43.1559 45.2308 43.8494 46.441 43.5231 47.6103C43.1967 48.7795 41.9934 49.4769 40.8309 49.1487C40.5454 49.0667 40.2802 48.9231 40.0559 48.759L21.8635 58.9128C24.3925 59.6103 27.0846 60 29.838 60C37.4657 60 44.4204 57.1282 49.6824 52.3897L49.6008 31.5692C48.581 31.159 48.01 30.0308 48.3159 28.9436C48.6422 27.7744 49.8455 27.0769 51.008 27.4051C52.1706 27.7333 52.864 28.9436 52.5377 30.1128C52.3541 30.7897 51.8646 31.3026 51.2528 31.5487L51.3344 50.7897C56.4943 45.3949 59.6556 38.0718 59.6556 30.0103C59.6352 28.2462 59.4924 26.5436 59.2069 24.8821ZM29.8176 42.9744C29.0426 42.9744 28.4103 42.3385 28.4103 41.559C28.4103 40.7795 29.0426 40.1436 29.8176 40.1436C30.5926 40.1436 31.2248 40.7795 31.2248 41.559C31.2248 42.3385 30.5926 42.9744 29.8176 42.9744ZM32.836 41.4564C32.7749 39.8359 31.4492 38.5231 29.8176 38.5231C28.186 38.5231 26.8603 39.8359 26.7991 41.4564L25.0451 40.4308C25.555 38.2564 27.4925 36.6154 29.8176 36.6154C32.1426 36.6154 34.0801 38.2359 34.59 40.4308L32.836 41.4564ZM36.2828 39.4667C35.4058 36.718 32.8564 34.7487 29.838 34.7487C26.8195 34.7487 24.2701 36.7385 23.3931 39.4667L21.7411 38.5026C22.9648 35.2 26.1465 32.8615 29.8584 32.8615C33.5703 32.8615 36.7315 35.2205 37.9756 38.5026L36.2828 39.4667ZM41.1164 30.0923V36.3282V36.6564L39.5868 37.5385C38.0164 33.682 34.2433 30.9538 29.838 30.9538C25.4326 30.9538 21.6596 33.682 20.0891 37.5385L18.5595 36.6564V36.3282V30.0923V23.5282L24.2089 20.2462L29.8584 16.9641L35.5078 20.2462L41.1572 23.5282V30.0923H41.1164Z" fill="white"/>
<path d="M20.3746 24.6154V33.4564C22.6589 30.7692 26.0445 29.0666 29.8175 29.0666C33.611 29.0666 36.9966 30.7692 39.2605 33.4564V24.6154L29.8175 19.1179L20.3746 24.6154ZM29.6136 26.3384H27.9616V24.6564H29.6136V26.3384ZM29.6136 24.2461H27.9616V22.5846H29.6136V24.2461ZM30.0419 22.5846H31.6939V24.2461H30.0419V22.5846ZM30.0419 24.6564H31.6939V26.3179H30.0419V24.6564Z" fill="white"/>
<path d="M18.1108 14.1538C18.7753 14.1538 19.3141 13.612 19.3141 12.9436C19.3141 12.2752 18.7753 11.7333 18.1108 11.7333C17.4462 11.7333 16.9075 12.2752 16.9075 12.9436C16.9075 13.612 17.4462 14.1538 18.1108 14.1538Z" fill="white"/>
<path d="M9.46332 32.4718C10.1279 32.4718 10.6666 31.9299 10.6666 31.2615C10.6666 30.5931 10.1279 30.0513 9.46332 30.0513C8.79875 30.0513 8.26001 30.5931 8.26001 31.2615C8.26001 31.9299 8.79875 32.4718 9.46332 32.4718Z" fill="white"/>
<path d="M21.1701 50.0718C21.8347 50.0718 22.3734 49.5299 22.3734 48.8615C22.3734 48.1931 21.8347 47.6512 21.1701 47.6512C20.5055 47.6512 19.9668 48.1931 19.9668 48.8615C19.9668 49.5299 20.5055 50.0718 21.1701 50.0718Z" fill="white"/>
<path d="M41.4836 48.2051C42.1481 48.2051 42.6869 47.6633 42.6869 46.9949C42.6869 46.3265 42.1481 45.7846 41.4836 45.7846C40.819 45.7846 40.2803 46.3265 40.2803 46.9949C40.2803 47.6633 40.819 48.2051 41.4836 48.2051Z" fill="white"/>
<path d="M50.437 30.6872C51.1015 30.6872 51.6403 30.1453 51.6403 29.4769C51.6403 28.8085 51.1015 28.2667 50.437 28.2667C49.7724 28.2667 49.2336 28.8085 49.2336 29.4769C49.2336 30.1453 49.7724 30.6872 50.437 30.6872Z" fill="white"/>
<path d="M38.5671 12.5128C39.2316 12.5128 39.7704 11.9709 39.7704 11.3025C39.7704 10.6341 39.2316 10.0923 38.5671 10.0923C37.9025 10.0923 37.3638 10.6341 37.3638 11.3025C37.3638 11.9709 37.9025 12.5128 38.5671 12.5128Z" fill="white"/>
<path d="M90.8601 38.2974C88.5758 40.5949 85.5573 41.7231 82.5797 41.7231C74.9111 41.7231 70.9137 36.3282 70.8729 30.1538C70.8117 24.041 74.7683 18.3179 82.5797 18.3179C85.5777 18.3179 88.5962 19.4666 90.8601 21.7436L89.6567 22.7897C87.6988 20.8205 85.129 19.8769 82.5593 19.8769C75.9309 19.8769 72.5045 24.5949 72.5453 30.0718C72.6065 35.4256 75.9921 40.082 82.5593 40.082C85.129 40.082 87.7192 39.0974 89.6771 37.1692L90.8601 38.2974Z" fill="white"/>
<path d="M95.9385 18.5846V41.4769H94.3477V18.5846H95.9385Z" fill="white"/>
<path d="M99.4668 33.3949C99.4668 28.5538 103.118 25.0667 107.625 25.0667C112.132 25.0667 116.17 27.8359 115.559 34.1538H101.098C101.425 37.9487 104.321 40.1436 107.625 40.1436C109.746 40.1436 112.214 39.3025 113.417 37.682L114.559 38.6051C112.989 40.6564 110.195 41.7025 107.625 41.7025C103.118 41.7025 99.4668 38.5231 99.4668 33.3949ZM114.131 32.7384C114.09 28.759 111.5 26.5231 107.625 26.5231C104.3 26.5231 101.445 28.7795 101.098 32.7384H114.131Z" fill="white"/>
<path d="M135.138 25.3128C135.138 30.7077 135.138 36.0615 135.138 41.4564H133.547V38.0307C131.976 40.5538 129.59 41.7231 126.98 41.7231C122.493 41.7231 118.822 38.3179 118.822 33.3948C118.822 28.4513 122.493 25.1282 126.98 25.1282C129.59 25.1282 132.221 26.3384 133.547 28.8615V25.3333H135.138V25.3128ZM120.412 33.3948C120.412 37.4564 123.329 40.1641 126.98 40.1641C135.913 40.1641 135.913 26.6666 126.98 26.6666C123.329 26.6461 120.412 29.3333 120.412 33.3948Z" fill="white"/>
<path d="M140.95 25.3128L141.011 28.1846C142.011 25.9897 144.295 25.1487 146.335 25.1487C147.538 25.1077 148.7 25.4359 149.781 26.0923L149.068 27.4051C148.231 26.8718 147.273 26.6461 146.335 26.6461C143.337 26.6872 141.032 29.1077 141.032 32.041V41.4769H139.441V25.3333H140.95V25.3128Z" fill="white"/>
<path d="M167.525 41.4974V32.2461H156.349V41.4974H152.066V18.6051H156.349V28.2461H167.525V18.6051H171.788V41.4974H167.525Z" fill="white"/>
<path d="M204.583 41.4769V32.841C204.583 30.7077 203.482 28.7795 201.299 28.7795C199.158 28.7795 197.893 30.7077 197.893 32.841V41.4769H193.937V25.3333H197.608L197.893 27.3025C198.73 25.6615 200.585 25.0872 202.115 25.0872C204.032 25.0872 205.949 25.8666 206.867 28.1025C208.295 25.8051 210.151 25.1692 212.231 25.1692C216.779 25.1692 219.023 27.9795 219.023 32.8205V41.4769H215.066V32.7795C215.066 30.6461 214.189 28.8615 212.048 28.8615C209.906 28.8615 208.56 30.7282 208.56 32.841V41.4769H204.583Z" fill="white"/>
<path d="M226.426 34.8307C226.691 36.8205 228.404 38.2564 231.198 38.2564C232.667 38.2564 234.584 37.7025 235.481 36.7589L238.01 39.282C236.318 41.0461 233.564 41.9077 231.117 41.9077C225.59 41.9077 222.306 38.482 222.306 33.3128C222.306 28.4102 225.631 24.882 230.831 24.882C236.195 24.882 239.54 28.2256 238.928 34.8513H226.426V34.8307ZM235.155 31.5282C234.89 29.4359 233.279 28.3897 230.995 28.3897C228.853 28.3897 227.099 29.4359 226.508 31.5282H235.155Z" fill="white"/>
<path d="M187.471 33.3539C187.471 35.8769 185.432 37.9077 182.944 37.9077C180.456 37.9077 178.416 35.8564 178.416 33.3539C178.416 30.8308 180.456 28.8 182.944 28.8V25.2308C178.477 25.2308 174.847 28.8821 174.847 33.3744C174.847 37.8667 178.477 41.518 182.944 41.518C187.41 41.518 191.041 37.8667 191.041 33.3744H187.471V33.3539Z" fill="white"/>
<path d="M182.923 35.2C183.937 35.2 184.759 34.3734 184.759 33.3538C184.759 32.3342 183.937 31.5077 182.923 31.5077C181.91 31.5077 181.088 32.3342 181.088 33.3538C181.088 34.3734 181.91 35.2 182.923 35.2Z" fill="white"/>
<path d="M183.556 25.2308V26.441C186.737 26.7487 189.511 29.518 189.796 32.7385H191C190.714 28.718 187.533 25.5385 183.556 25.2308Z" fill="white"/>
<path d="M183.556 27.2V28.4103C185.656 28.6974 187.553 30.6051 187.818 32.718H189.021C188.756 29.8051 186.452 27.5077 183.556 27.2Z" fill="white"/>
<path d="M183.556 29.3128V30.5436C184.494 30.7692 185.473 31.7538 185.717 32.7179H186.941C186.676 30.9743 185.31 29.6 183.556 29.3128Z" fill="white"/>
</svg>
