<svg width="26" height="26" viewBox="0 0 26 26" fill="none" xmlns="http://www.w3.org/2000/svg">
<path d="M21.125 13.4761V11.375H19.5V13.8125C19.5 14.028 19.5857 14.2346 19.7381 14.3869L21.9375 16.5864V17.875H4.0625V16.5864L6.26194 14.3869C6.41432 14.2346 6.49995 14.028 6.5 13.8125V10.5625C6.49774 9.42077 6.79681 8.29866 7.36701 7.30951C7.93721 6.32035 8.75835 5.49919 9.74748 4.92896C10.7366 4.35872 11.8587 4.05961 13.0004 4.06183C14.1422 4.06406 15.2631 4.36754 16.25 4.94162V3.12569C15.4766 2.78324 14.654 2.56497 13.8125 2.47894V0.8125H12.1875V2.47812C10.1843 2.68201 8.32793 3.62141 6.97724 5.11467C5.62654 6.60794 4.87752 8.54899 4.875 10.5625V13.4761L2.67556 15.6756C2.52318 15.8279 2.43755 16.0345 2.4375 16.25V18.6875C2.4375 18.903 2.5231 19.1097 2.67548 19.262C2.82785 19.4144 3.03451 19.5 3.25 19.5H8.9375V20.3125C8.9375 21.3899 9.36551 22.4233 10.1274 23.1851C10.8892 23.947 11.9226 24.375 13 24.375C14.0774 24.375 15.1108 23.947 15.8726 23.1851C16.6345 22.4233 17.0625 21.3899 17.0625 20.3125V19.5H22.75C22.9655 19.5 23.1722 19.4144 23.3245 19.262C23.4769 19.1097 23.5625 18.903 23.5625 18.6875V16.25C23.5625 16.0345 23.4768 15.8279 23.3244 15.6756L21.125 13.4761ZM15.4375 20.3125C15.4375 20.959 15.1807 21.579 14.7236 22.0361C14.2665 22.4932 13.6465 22.75 13 22.75C12.3535 22.75 11.7335 22.4932 11.2764 22.0361C10.8193 21.579 10.5625 20.959 10.5625 20.3125V19.5H15.4375V20.3125Z" fill="#1252EA"/>
<path d="M21.125 9.75C22.9199 9.75 24.375 8.29493 24.375 6.5C24.375 4.70507 22.9199 3.25 21.125 3.25C19.3301 3.25 17.875 4.70507 17.875 6.5C17.875 8.29493 19.3301 9.75 21.125 9.75Z" fill="#1252EA"/>
</svg>
