<svg width="110" height="110" viewBox="0 0 110 110" fill="none" xmlns="http://www.w3.org/2000/svg">
<g clip-path="url(#clip0_134_143)">
<path d="M53.7109 110C53.5104 109.857 53.2812 109.742 53.0807 109.599C51.8203 108.769 51.2474 107.337 51.6198 105.963C52.0208 104.474 53.1667 103.558 54.7422 103.472C58.4375 103.3 62.1042 103.129 65.6849 102.184C85.3646 96.9157 97.9401 84.4326 102.208 64.5341C105.646 48.4722 101.263 34.0994 90.1198 21.9886C82.3568 13.5424 72.6172 8.64654 61.2448 7.04321C59.125 6.7569 56.9766 6.69964 54.8281 6.55649C52.8516 6.44196 51.4766 5.06768 51.5052 3.20667C51.5339 1.34566 52.9375 -0.0286255 54.9141 -0.0286255C68.3776 -0.0286255 80.2656 4.3519 90.5208 13.0557C100.518 21.5591 106.706 32.2957 109.083 45.2082C109.513 47.556 109.828 49.9323 109.885 52.3373C109.885 52.7382 109.971 53.1104 110.029 53.5112C110.029 54.5133 110.029 55.5154 110.029 56.5174C109.971 56.8038 109.885 57.0901 109.885 57.3477C109.857 60.0104 109.484 62.6158 109.026 65.2212C105.359 85.8069 89.0885 103.214 68.8073 108.339C65.7422 109.112 62.6484 109.571 59.526 109.971C57.5781 110 55.6589 110 53.7109 110Z" fill="#1252EA"/>
<path d="M0 60.6117C0.257812 60.0104 0.429688 59.4092 0.859375 58.8938C1.77604 57.8631 2.95052 57.5195 4.26823 57.8345C5.61458 58.178 6.41667 59.0942 6.67448 60.4399C7.04688 62.4441 7.41927 64.4482 7.73438 66.4524C7.96354 67.9985 6.81771 69.659 5.29948 70.0312C3.55208 70.4607 1.83333 69.5731 1.28906 67.8553C0.6875 66.0229 0.515625 64.076 0.200521 62.1864C0.171875 61.9287 0.0859375 61.6996 0.0286458 61.4706C0 61.1843 0 60.898 0 60.6117Z" fill="#1252EA"/>
<path d="M51.5052 38.8521C51.5052 33.5268 51.4766 28.2014 51.5052 22.8761C51.5052 20.3279 53.7969 18.7246 56.0599 19.6122C57.1484 20.0416 57.8073 20.8433 58.0365 21.9599C58.1797 22.6184 58.2083 23.3056 58.2083 23.9927C58.2083 33.2978 58.237 42.6028 58.1797 51.8792C58.1797 53.1676 58.5807 54.0552 59.4974 54.9714C67.0312 62.4154 74.5078 69.9167 81.9844 77.418C82.4427 77.8761 82.901 78.3342 83.3021 78.8495C84.4193 80.2811 84.276 82.0848 83.0156 83.316C81.7838 84.5185 80.0078 84.5757 78.6042 83.4591C78.2891 83.2301 78.0312 82.9151 77.7448 82.6575C69.5234 74.4404 61.3021 66.1947 53.0521 58.0062C51.9635 56.9183 51.4479 55.7444 51.4766 54.1983C51.5339 49.102 51.5052 43.9771 51.5052 38.8521Z" fill="#1252EA"/>
<path d="M8.76563 75.3852C10.026 75.3852 10.9714 75.9292 11.6302 76.9886C12.6615 78.6778 13.6354 80.367 14.6094 82.0562C15.4974 83.6596 15.0677 85.5206 13.6354 86.5227C12.1458 87.5534 10.1979 87.2384 9.08073 85.6924C7.79167 83.9172 6.70313 82.0276 5.78646 80.0521C4.72656 77.8189 6.33073 75.3852 8.76563 75.3852Z" fill="#1252EA"/>
<path d="M35.7786 99.7787C36.0651 99.8646 36.6094 99.9505 37.0964 100.122C38.7005 100.638 40.276 101.182 41.8802 101.726C43.8568 102.384 44.888 104.045 44.3724 105.82C43.8281 107.71 42.1094 108.683 40.1042 108.139C38.1276 107.624 36.2083 106.965 34.3177 106.163C32.7995 105.534 31.9974 103.987 32.3125 102.527C32.6563 100.867 33.9453 99.7787 35.7786 99.7787Z" fill="#1252EA"/>
<path d="M7.82031 43.1468C7.44792 45.0937 7.10417 47.3842 6.53125 49.6174C6.15886 51.1062 4.44011 52.0224 3.00781 51.7647C1.40365 51.4784 0.143231 50.19 0.171877 48.6153C0.229169 46.1531 0.773439 43.7194 1.51823 41.3717C2.00521 39.8829 3.69531 39.0812 5.15625 39.3962C6.81771 39.7397 7.84896 41.0567 7.82031 43.1468Z" fill="#1252EA"/>
<path d="M27.8438 96.658C27.8438 99.5497 25.1797 101.182 22.974 99.9219C20.9401 98.748 19.1641 97.1447 17.474 95.4841C16.2995 94.3389 16.3854 92.3061 17.474 91.075C18.5911 89.8438 20.4818 89.5575 21.8568 90.5882C23.5469 91.848 25.151 93.1936 26.7552 94.5679C27.5 95.1978 27.8438 96.0567 27.8438 96.658Z" fill="#1252EA"/>
<path d="M5.72917 30.7496C5.67188 30.1484 5.90104 29.5471 6.24479 29.0031C7.21875 27.3712 8.16406 25.7392 9.19531 24.1645C10.3125 22.4753 12.2891 22.0458 13.8646 23.0765C15.4115 24.0786 15.8125 26.1114 14.7813 27.8006C13.8073 29.404 12.8333 31.0359 11.8307 32.6392C11 33.9563 9.51042 34.5289 8.13542 34.0994C6.61719 33.6127 5.70052 32.4102 5.72917 30.7496Z" fill="#1252EA"/>
<path d="M32.7995 6.35608C32.8281 5.354 33.4583 4.29465 34.776 3.72203C36.724 2.89174 38.7578 2.29049 40.7917 1.77513C42.6536 1.31704 44.4297 2.31912 44.888 3.97971C45.4036 5.81209 44.4297 7.58721 42.5104 8.18846C40.763 8.76108 39.0443 9.30507 37.2969 9.84905C34.9766 10.6221 32.8281 9.13328 32.7995 6.35608Z" fill="#1252EA"/>
<path d="M20.5677 19.6981C19.0208 19.6981 17.9609 19.0682 17.388 17.8371C16.7865 16.5773 16.901 15.2603 17.875 14.2296C19.5078 12.5117 21.3984 11.0802 23.4036 9.82042C24.8359 8.93286 26.7552 9.44821 27.7005 10.8225C28.6458 12.2254 28.5026 14.0864 27.1849 15.203C25.5807 16.5773 23.8906 17.8371 22.2292 19.1255C21.7135 19.5263 21.0833 19.7267 20.5677 19.6981Z" fill="#1252EA"/>
</g>
<defs>
<clipPath id="clip0_134_143">
<rect width="110" height="110" fill="white"/>
</clipPath>
</defs>
</svg>
