<svg width="28" height="28" viewBox="0 0 28 28" fill="none" xmlns="http://www.w3.org/2000/svg">
<g clip-path="url(#clip0_183_1834)">
<path d="M14.0777 8.55554C11.0444 8.55554 8.6333 10.9667 8.6333 14C8.6333 17.0333 11.0444 19.4444 14.0777 19.4444C17.1111 19.4444 19.5222 17.0333 19.5222 14C19.5222 10.9667 17.1111 8.55554 14.0777 8.55554ZM14.0777 17.8889C11.9 17.8889 10.1889 16.1778 10.1889 14C10.1889 11.8222 11.9 10.1111 14.0777 10.1111C16.2555 10.1111 17.9666 11.8222 17.9666 14C17.9666 16.1778 16.2555 17.8889 14.0777 17.8889Z" fill="white"/>
<path d="M25.5111 11.4333L23.3333 10.7333L22.8667 9.56665L23.9555 7.54443C24.1889 7.07776 24.1111 6.45554 23.7222 6.06665L21.8555 4.19999C21.4667 3.8111 20.8444 3.73332 20.3778 3.96665L18.3555 5.05554L17.1889 4.58888L16.4889 2.4111C16.3333 1.94443 15.8667 1.55554 15.3222 1.55554H12.6778C12.1333 1.55554 11.6667 1.94443 11.5889 2.48888L10.8889 4.66665C10.4222 4.74443 10.0333 4.89999 9.64443 5.13332L7.62221 4.04443C7.15554 3.8111 6.53332 3.88888 6.14443 4.27776L4.27776 6.14443C3.88888 6.53332 3.8111 7.15554 4.04443 7.62221L5.05554 9.56665C4.89999 9.95554 4.74443 10.4222 4.58888 10.8111L2.4111 11.5111C1.94443 11.6667 1.55554 12.1333 1.55554 12.6778V15.3222C1.55554 15.8667 1.94443 16.3333 2.48888 16.4889L4.66665 17.1889L5.13332 18.3555L4.04443 20.3778C3.8111 20.8444 3.88888 21.4667 4.27776 21.8555L6.14443 23.7222C6.53332 24.1111 7.15554 24.1889 7.62221 23.9555L9.64443 22.8667L10.8111 23.3333L11.5111 25.5889C11.6667 26.0555 12.1333 26.4444 12.6778 26.4444H15.3222C15.8667 26.4444 16.3333 26.0555 16.4889 25.5889L17.1889 23.3333L18.3555 22.8667L20.3778 23.9555C20.8444 24.1889 21.4667 24.1111 21.8555 23.7222L23.7222 21.8555C24.1111 21.4667 24.1889 20.8444 23.9555 20.3778L22.8667 18.3555L23.3333 17.1889L25.5889 16.4889C26.0555 16.3333 26.4444 15.8667 26.4444 15.3222V12.6778C26.4444 12.1333 26.0555 11.5889 25.5111 11.4333ZM24.8889 15.0889L22.0889 15.9444L22.0111 16.3333L21.3111 17.9667L21.0778 18.3555L22.4778 20.9222L20.9222 22.4778L18.3555 21.0778L17.9667 21.3111C17.4222 21.6222 16.8778 21.8555 16.3333 22.0111L15.9444 22.0889L15.0889 24.8889H12.9111L12.0555 22.0889L11.6667 22.0111L10.0333 21.3111L9.64443 21.0778L7.07776 22.4778L5.52221 20.9222L6.92221 18.3555L6.68888 17.9667C6.37776 17.4222 6.14443 16.8778 5.98888 16.3333L5.9111 15.9444L3.1111 15.0889V12.9111L5.75554 12.1333L5.9111 11.7444C6.06665 11.1222 6.29999 10.5778 6.6111 10.0333L6.84443 9.64443L5.52221 7.07776L7.07776 5.52221L9.56665 6.92221L9.95554 6.68888C10.5 6.37776 11.0444 6.14443 11.6667 5.98888L12.0555 5.83332L12.9111 3.1111H15.0889L15.9444 5.83332L16.3333 5.98888C16.8778 6.14443 17.4222 6.37776 17.9667 6.68888L18.3555 6.92221L20.9222 5.52221L22.4778 7.07776L21.0778 9.64443L21.3111 10.0333C21.6222 10.5778 21.8555 11.1222 22.0111 11.6667L22.0889 12.0555L24.8889 12.9111V15.0889Z" fill="white"/>
</g>
<defs>
<clipPath id="clip0_183_1834">
<rect width="28" height="28" fill="white"/>
</clipPath>
</defs>
</svg>
