<svg width="30" height="30" viewBox="0 0 30 30" fill="none" xmlns="http://www.w3.org/2000/svg">
<path d="M12.5 16.5625C12.7486 16.5625 12.9871 16.6613 13.1629 16.8371C13.3387 17.0129 13.4375 17.2514 13.4375 17.5V20C13.4375 20.2486 13.3387 20.4871 13.1629 20.6629C12.9871 20.8387 12.7486 20.9375 12.5 20.9375C12.2514 20.9375 12.0129 20.8387 11.8371 20.6629C11.6613 20.4871 11.5625 20.2486 11.5625 20V17.5C11.5625 17.2514 11.6613 17.0129 11.8371 16.8371C12.0129 16.6613 12.2514 16.5625 12.5 16.5625ZM18.4375 17.5C18.4375 17.2514 18.3387 17.0129 18.1629 16.8371C17.9871 16.6613 17.7486 16.5625 17.5 16.5625C17.2514 16.5625 17.0129 16.6613 16.8371 16.8371C16.6613 17.0129 16.5625 17.2514 16.5625 17.5V20C16.5625 20.2486 16.6613 20.4871 16.8371 20.6629C17.0129 20.8387 17.2514 20.9375 17.5 20.9375C17.7486 20.9375 17.9871 20.8387 18.1629 20.6629C18.3387 20.4871 18.4375 20.2486 18.4375 20V17.5Z" fill="#1252EA"/>
<path fill-rule="evenodd" clip-rule="evenodd" d="M12.0625 4.21877C12.1868 4.00328 12.2204 3.74724 12.1559 3.50695C12.0915 3.26667 11.9342 3.06184 11.7187 2.93752C11.5032 2.8132 11.2472 2.77958 11.0069 2.84404C10.7666 2.90851 10.5618 3.06578 10.4375 3.28127L7.93746 7.61127C7.90097 7.67477 7.87202 7.74231 7.85121 7.81252H7.49996C6.79065 7.81263 6.09874 8.03216 5.51912 8.441C4.9395 8.84985 4.50054 9.42799 4.26244 10.0961C4.02434 10.7643 3.99877 11.4897 4.18922 12.173C4.37967 12.8563 4.77682 13.4639 5.32621 13.9125L6.15996 19.6438L6.71871 22.26C6.88187 23.0253 7.27662 23.7218 7.84934 24.2549C8.42206 24.788 9.14499 25.132 9.91996 25.24C13.2912 25.7088 16.7087 25.7088 20.08 25.24C20.8549 25.132 21.5779 24.788 22.1506 24.2549C22.7233 23.7218 23.118 23.0253 23.2812 22.26L23.84 19.6438L24.6737 13.9125C25.2231 13.4639 25.6202 12.8563 25.8107 12.173C26.0011 11.4897 25.9756 10.7643 25.7375 10.0961C25.4994 9.42799 25.0604 8.84985 24.4808 8.441C23.9012 8.03216 23.2093 7.81263 22.5 7.81252H22.1487C22.1274 7.74269 22.098 7.67557 22.0612 7.61252L19.5612 3.28127C19.5021 3.17019 19.4211 3.07216 19.3233 2.99302C19.2255 2.91388 19.1127 2.85524 18.9917 2.82061C18.8707 2.78599 18.744 2.77607 18.6191 2.79146C18.4942 2.80685 18.3737 2.84723 18.2647 2.91019C18.1557 2.97315 18.0606 3.0574 17.9848 3.15793C17.9091 3.25845 17.8544 3.37319 17.824 3.49531C17.7936 3.61742 17.7881 3.74441 17.8078 3.8687C17.8275 3.993 17.872 4.11205 17.9387 4.21877L20.0137 7.81252H9.98746L12.0625 4.21877ZM22.6675 14.6838C22.6117 14.6863 22.5558 14.6876 22.5 14.6875H7.49996C7.44371 14.6875 7.38746 14.6863 7.33371 14.6838L8.00621 19.3125L8.55246 21.8688C8.63538 22.2575 8.83593 22.6113 9.12687 22.8821C9.41781 23.1529 9.78504 23.3276 10.1787 23.3825C13.3775 23.8275 16.6225 23.8275 19.8212 23.3825C20.2147 23.3277 20.5818 23.1532 20.8727 22.8826C21.1637 22.612 21.3643 22.2585 21.4475 21.87L21.9937 19.3125L22.6675 14.6838ZM5.93746 11.25C5.93746 10.3875 6.63746 9.68752 7.49996 9.68752H22.5C22.9144 9.68752 23.3118 9.85214 23.6048 10.1452C23.8978 10.4382 24.0625 10.8356 24.0625 11.25C24.0625 11.6644 23.8978 12.0619 23.6048 12.3549C23.3118 12.6479 22.9144 12.8125 22.5 12.8125H7.49996C6.63746 12.8125 5.93746 12.1125 5.93746 11.25Z" fill="#1252EA"/>
</svg>
