<svg width="25" height="25" viewBox="0 0 25 25" fill="none" xmlns="http://www.w3.org/2000/svg">
<g clip-path="url(#clip0_183_1826)">
<path d="M21.0938 20.3125C21.3053 20.3125 21.4884 20.3898 21.6431 20.5444C21.7977 20.6991 21.875 20.8822 21.875 21.0938C21.875 21.3053 21.7977 21.4884 21.6431 21.6431C21.4884 21.7977 21.3053 21.875 21.0938 21.875H11.7188C11.5072 21.875 11.3241 21.7977 11.1694 21.6431C11.0148 21.4884 10.9375 21.3053 10.9375 21.0938C10.9375 20.8822 11.0148 20.6991 11.1694 20.5444C11.3241 20.3898 11.5072 20.3125 11.7188 20.3125H21.0938ZM19.5312 23.4375C19.7428 23.4375 19.9259 23.5148 20.0806 23.6694C20.2352 23.8241 20.3125 24.0072 20.3125 24.2188C20.3125 24.4303 20.2352 24.6134 20.0806 24.7681C19.9259 24.9227 19.7428 25 19.5312 25H13.2812C13.0697 25 12.8866 24.9227 12.7319 24.7681C12.5773 24.6134 12.5 24.4303 12.5 24.2188C12.5 24.0072 12.5773 23.8241 12.7319 23.6694C12.8866 23.5148 13.0697 23.4375 13.2812 23.4375H19.5312ZM22.4365 17.1875H25V18.75H6.55518C6.4738 19.2708 6.41683 19.7917 6.38428 20.3125C6.35173 20.8333 6.32324 21.3501 6.29883 21.8628C6.27441 22.3755 6.26221 22.8963 6.26221 23.4253C6.26221 23.9543 6.25814 24.4792 6.25 25H1.5625V22.644C1.5625 21.9849 1.58691 21.3338 1.63574 20.6909C1.68457 20.048 1.75374 19.401 1.84326 18.75H0V17.1875H2.09961C2.50651 15.1937 3.12093 13.2772 3.94287 11.438C4.76481 9.5988 5.78206 7.86133 6.99463 6.22559C5.80648 6.1849 4.71598 5.93669 3.72314 5.48096C2.73031 5.02523 1.82292 4.37419 1.00098 3.52783L0.45166 2.96631L1.02539 2.4292C1.87174 1.63981 2.79948 1.04167 3.80859 0.634766C4.81771 0.227865 5.90413 0.0203451 7.06787 0.012207C8.3374 0.012207 9.50114 0.24821 10.5591 0.720215C11.617 1.19222 12.5895 1.87581 13.4766 2.771C14.1032 2.78727 14.7095 2.88493 15.2954 3.06396C15.8813 3.243 16.4266 3.48714 16.9312 3.79639C17.4357 4.10563 17.8955 4.47184 18.3105 4.89502C18.7256 5.3182 19.0796 5.78613 19.3726 6.29883C19.6655 6.81152 19.8975 7.36084 20.0684 7.94678C20.2393 8.53271 20.3206 9.14307 20.3125 9.77783V10.5591H19.5312C18.457 10.5591 17.452 10.3312 16.5161 9.87549C15.5802 9.41976 14.7705 8.77279 14.0869 7.93457C13.4684 9.05762 12.6912 9.98128 11.7554 10.7056C10.8195 11.4299 9.72493 11.9385 8.47168 12.2314C8.12175 13.0371 7.8125 13.8509 7.54395 14.6729C7.27539 15.4948 7.04346 16.333 6.84814 17.1875H10.376C10.555 16.5039 10.8358 15.8773 11.2183 15.3076C11.6007 14.738 12.0565 14.2415 12.5854 13.8184C13.1144 13.3952 13.7085 13.0737 14.3677 12.854C15.0269 12.6343 15.7064 12.5163 16.4062 12.5C17.1143 12.5 17.7938 12.6139 18.4448 12.8418C19.0959 13.0697 19.6859 13.3952 20.2148 13.8184C20.7438 14.2415 21.2036 14.7339 21.5942 15.2954C21.9849 15.8569 22.2656 16.4876 22.4365 17.1875ZM15.1123 4.63867C15.0635 5.16764 14.9577 5.70475 14.7949 6.25C15.21 6.96615 15.7552 7.56022 16.4307 8.03223C17.1061 8.50423 17.8589 8.80534 18.689 8.93555C18.6076 8.43913 18.4652 7.97119 18.2617 7.53174C18.0583 7.09229 17.8019 6.68131 17.4927 6.29883C17.1834 5.91634 16.8254 5.59082 16.4185 5.32227C16.0116 5.05371 15.5762 4.82585 15.1123 4.63867ZM13.5742 4.72412C12.7441 4.78923 11.9629 4.99268 11.2305 5.33447C10.498 5.67627 9.84294 6.12386 9.26514 6.67725C8.68734 7.23063 8.21126 7.86947 7.83691 8.59375C7.46256 9.31803 7.21436 10.0871 7.09229 10.9009C7.78402 10.8439 8.43913 10.6974 9.05762 10.4614C9.67611 10.2254 10.2417 9.90804 10.7544 9.50928C11.2671 9.11051 11.7228 8.65479 12.1216 8.14209C12.5203 7.62939 12.8499 7.04346 13.1104 6.38428C13.2243 6.11572 13.3179 5.8431 13.3911 5.56641C13.4644 5.28971 13.5254 5.00895 13.5742 4.72412ZM2.73438 3.01514C3.38542 3.55225 4.10563 3.96322 4.89502 4.24805C5.68441 4.53288 6.50228 4.67529 7.34863 4.67529C8.13802 4.67529 8.89893 4.55322 9.63135 4.30908C10.3638 4.06494 11.0474 3.70687 11.6821 3.23486C11.0311 2.69775 10.3109 2.28678 9.52148 2.00195C8.7321 1.71712 7.91423 1.57471 7.06787 1.57471C6.27848 1.57471 5.51758 1.69678 4.78516 1.94092C4.05273 2.18506 3.36914 2.54313 2.73438 3.01514ZM6.61621 12.4756C6.55111 12.4919 6.486 12.5 6.4209 12.5C6.35579 12.5 6.29069 12.5 6.22559 12.5H5.83496C5.70475 12.5 5.57454 12.4919 5.44434 12.4756V11.9019C5.01302 12.8621 4.65088 13.8062 4.35791 14.7339C4.06494 15.6616 3.82487 16.5975 3.6377 17.5415C3.45052 18.4855 3.32031 19.4417 3.24707 20.4102C3.17383 21.3786 3.13314 22.3877 3.125 23.4375H4.6875C4.6875 22.4528 4.72005 21.5007 4.78516 20.5811C4.85026 19.6615 4.96012 18.7541 5.11475 17.8589C5.26937 16.9637 5.46875 16.0726 5.71289 15.1855C5.95703 14.2985 6.25814 13.3952 6.61621 12.4756ZM12.0117 17.1875H20.8008C20.638 16.7236 20.4102 16.3005 20.1172 15.918C19.8242 15.5355 19.4865 15.2059 19.104 14.9292C18.7215 14.6525 18.2983 14.4409 17.8345 14.2944C17.3706 14.1479 16.8945 14.0706 16.4062 14.0625C15.9098 14.0625 15.4338 14.1357 14.978 14.2822C14.5223 14.4287 14.1032 14.6403 13.7207 14.917C13.3382 15.1937 12.9964 15.5233 12.6953 15.9058C12.3942 16.2882 12.1663 16.7155 12.0117 17.1875Z" fill="#1252EA"/>
</g>
<defs>
<clipPath id="clip0_183_1826">
<rect width="25" height="25" fill="white"/>
</clipPath>
</defs>
</svg>
