<svg width="24" height="24" viewBox="0 0 24 24" fill="none" xmlns="http://www.w3.org/2000/svg">
<path d="M12 9.02495C11.8667 9.02495 11.7377 9.04995 11.613 9.09995C11.4877 9.14995 11.3833 9.21662 11.3 9.29995L6.69999 13.9C6.51665 14.0833 6.42499 14.3166 6.42499 14.6C6.42499 14.8833 6.51665 15.1166 6.69999 15.3C6.88332 15.4833 7.11665 15.575 7.39999 15.575C7.68332 15.575 7.91665 15.4833 8.09999 15.3L12 11.4L15.9 15.3C16.0833 15.4833 16.3167 15.575 16.6 15.575C16.8833 15.575 17.1167 15.4833 17.3 15.3C17.4833 15.1166 17.575 14.8833 17.575 14.6C17.575 14.3166 17.4833 14.0833 17.3 13.9L12.7 9.29995C12.6 9.19995 12.4917 9.12928 12.375 9.08795C12.2583 9.04595 12.1333 9.02495 12 9.02495Z" fill="white"/>
</svg>
