<svg width="10" height="10" viewBox="0 0 10 10" fill="none" xmlns="http://www.w3.org/2000/svg">
<path d="M1.36645 4.59784C1.67326 4.6006 1.88885 4.67523 2.06852 4.83831C2.63238 5.34689 3.19348 5.85824 3.75734 6.36958C3.90936 6.50502 4.00887 6.50226 4.14431 6.35023C4.85743 5.5459 5.56779 4.74157 6.28091 3.93723C6.95257 3.17712 7.62699 2.41701 8.29865 1.6569C8.59717 1.31969 8.89292 0.985244 9.19143 0.648032C9.21631 0.620392 9.24119 0.589987 9.26883 0.562347C9.39044 0.437966 9.54799 0.418617 9.66685 0.518123C9.79123 0.617628 9.80781 0.764122 9.7166 0.913379C8.61928 2.6796 7.52196 4.44582 6.4274 6.21203C5.84142 7.15733 5.25545 8.10263 4.66671 9.04793C4.46493 9.37132 4.18577 9.55651 3.79604 9.54546C3.5528 9.53993 3.34274 9.44595 3.18242 9.26076C2.93366 8.9733 2.69595 8.67755 2.45548 8.3818C1.87503 7.67144 1.29459 6.95832 0.711376 6.24797C0.260839 5.69792 0.421153 4.94887 1.05135 4.67523C1.17297 4.62271 1.30012 4.59507 1.36645 4.59784Z" fill="#1252EA"/>
</svg>
